<?xml version="1.0" standalone="no"?>
<!DOCTYPE svg PUBLIC "-//W3C//DTD SVG 20010904//EN"
 "http://www.w3.org/TR/2001/REC-SVG-20010904/DTD/svg10.dtd">
<svg version="1.0" xmlns="http://www.w3.org/2000/svg"
 width="1254.000000pt" height="1254.000000pt" viewBox="0 0 1254.000000 1254.000000"
 preserveAspectRatio="xMidYMid meet">

<g transform="translate(0.000000,1254.000000) scale(0.100000,-0.100000)"
fill="#000000" stroke="none">
<path d="M6467 8278 c-97 -133 -382 -522 -445 -608 -34 -47 -101 -139 -150
-205 -48 -66 -167 -228 -263 -360 -97 -132 -303 -413 -459 -625 -265 -360
-552 -752 -1037 -1412 -111 -153 -262 -357 -335 -455 -72 -98 -169 -229 -216
-291 -46 -63 -82 -115 -80 -117 2 -2 75 65 164 148 88 84 390 368 670 632 280
264 630 595 779 735 148 140 438 414 644 609 206 196 509 482 675 638 l300
282 59 -132 c77 -171 333 -730 534 -1167 88 -190 186 -403 218 -475 32 -71 63
-136 68 -142 12 -16 887 -19 887 -3 0 9 -144 334 -445 1005 -107 238 -320 718
-417 940 -21 50 -137 311 -257 580 l-217 490 -312 3 -312 2 -53 -72z"/>
</g>
</svg>
